<svg width="22" height="17" viewBox="0 0 22 17" fill="none" xmlns="http://www.w3.org/2000/svg">
<g clip-path="url(#clip0_2070_754)">
<path d="M18.6243 1.42371C17.2219 0.791212 15.7185 0.323713 14.1464 0.0578799C14.1324 0.0551923 14.1179 0.0569245 14.105 0.0628367C14.092 0.0687493 14.0812 0.0785491 14.074 0.0908799C13.8815 0.42913 13.667 0.870048 13.5167 1.21838C11.8494 0.969264 10.1543 0.969264 8.48696 1.21838C8.31949 0.832334 8.1307 0.455918 7.92134 0.0908799C7.91424 0.0783974 7.90351 0.0683757 7.89058 0.062152C7.87765 0.0559278 7.8631 0.0537982 7.84896 0.0560467C6.27776 0.32188 4.77444 0.78938 3.37102 1.4228C3.35895 1.42786 3.34871 1.4365 3.34169 1.44755C0.489023 5.64131 -0.292893 9.73147 0.0911908 13.7703C0.0922593 13.7802 0.0953299 13.7898 0.100215 13.7984C0.105101 13.8071 0.111698 13.8147 0.119607 13.8207C1.78463 15.0329 3.64175 15.9564 5.61318 16.5524C5.62692 16.5566 5.64164 16.5566 5.65538 16.5523C5.66912 16.5481 5.68124 16.5398 5.69018 16.5285C6.11442 15.9612 6.49035 15.3593 6.81402 14.7291C6.81851 14.7205 6.82111 14.711 6.82161 14.7013C6.82214 14.6916 6.82053 14.6819 6.81698 14.6729C6.81343 14.6638 6.80796 14.6557 6.80095 14.6489C6.79395 14.6422 6.7856 14.637 6.77644 14.6338C6.18428 14.4108 5.61053 14.1417 5.06044 13.829C5.05056 13.8233 5.04221 13.8153 5.03619 13.8056C5.03018 13.796 5.02663 13.785 5.02591 13.7736C5.02519 13.7623 5.0273 13.7509 5.03202 13.7406C5.03678 13.7302 5.04401 13.7212 5.05312 13.7144C5.1686 13.6291 5.28412 13.5402 5.39412 13.4513C5.404 13.4433 5.41594 13.4382 5.42856 13.4366C5.44117 13.435 5.45401 13.4369 5.4656 13.4421C9.06534 15.0591 12.964 15.0591 16.5215 13.4421C16.5332 13.4366 16.5461 13.4344 16.5589 13.4359C16.5717 13.4374 16.5839 13.4423 16.594 13.4504C16.704 13.5402 16.8185 13.6291 16.935 13.7144C16.9441 13.7211 16.9515 13.73 16.9564 13.7402C16.9613 13.7505 16.9636 13.7618 16.963 13.7731C16.9624 13.7845 16.9591 13.7955 16.9532 13.8053C16.9474 13.815 16.9392 13.8232 16.9294 13.829C16.3813 14.1443 15.8111 14.4111 15.2125 14.6329C15.2033 14.6362 15.1949 14.6415 15.188 14.6483C15.181 14.6552 15.1755 14.6634 15.172 14.6725C15.1684 14.6816 15.1668 14.6914 15.1673 14.7011C15.1679 14.7109 15.1704 14.7204 15.175 14.7291C15.505 15.3589 15.8826 15.9584 16.2979 16.5276C16.3065 16.5393 16.3185 16.5481 16.3323 16.5526C16.3461 16.5572 16.3609 16.5574 16.3749 16.5533C18.3497 15.959 20.2098 15.0351 21.8767 13.8207C21.8848 13.815 21.8917 13.8077 21.8967 13.7991C21.9018 13.7906 21.9049 13.7811 21.906 13.7712C22.3643 9.10174 21.1379 5.04453 18.6528 1.44938C18.6467 1.4377 18.6366 1.42859 18.6243 1.42371ZM7.35212 11.3109C6.2686 11.3109 5.37486 10.331 5.37486 9.12921C5.37486 7.92653 6.25118 6.94753 7.35212 6.94753C8.46128 6.94753 9.34676 7.93479 9.32934 9.12921C9.32934 10.3319 8.45302 11.3109 7.35212 11.3109ZM14.6625 11.3109C13.5781 11.3109 12.6853 10.331 12.6853 9.12921C12.6853 7.92653 13.5607 6.94753 14.6625 6.94753C15.7717 6.94753 16.6572 7.93479 16.6398 9.12921C16.6398 10.3319 15.7726 11.3109 14.6625 11.3109Z" fill="white"/>
</g>
<defs>
<clipPath id="clip0_2070_754">
<rect width="22" height="16.6122" fill="white"/>
</clipPath>
</defs>
</svg>
