<svg width="22" height="23" viewBox="0 0 22 23" fill="none" xmlns="http://www.w3.org/2000/svg">
<g id="instagram" clip-path="url(#clip0_2070_756)">
<path id="Vector" d="M11.0002 8.0139C9.0189 8.0139 7.40195 9.63085 7.40195 11.6121C7.40195 13.5934 9.0189 15.2103 11.0002 15.2103C12.9815 15.2103 14.5984 13.5934 14.5984 11.6121C14.5984 9.63085 12.9815 8.0139 11.0002 8.0139ZM21.792 11.6121C21.792 10.1221 21.8055 8.64559 21.7219 7.15827C21.6382 5.43068 21.2441 3.89747 19.9808 2.63419C18.7148 1.36821 17.1843 0.976807 15.4568 0.893129C13.9667 0.80945 12.4902 0.822946 11.0028 0.822946C9.51282 0.822946 8.03634 0.80945 6.54897 0.893129C4.82143 0.976807 3.28822 1.37091 2.02494 2.63419C0.758957 3.90017 0.367555 5.43068 0.283876 7.15827C0.200197 8.64829 0.213693 10.1248 0.213693 11.6121C0.213693 13.0995 0.200197 14.5786 0.283876 16.066C0.367555 17.7936 0.761654 19.3268 2.02494 20.5901C3.29092 21.856 4.82143 22.2474 6.54897 22.3311C8.03899 22.4148 9.51553 22.4013 11.0028 22.4013C12.4929 22.4013 13.9694 22.4148 15.4568 22.3311C17.1843 22.2474 18.7175 21.8533 19.9808 20.5901C21.2468 19.3241 21.6382 17.7936 21.7219 16.066C21.8082 14.5786 21.792 13.1022 21.792 11.6121ZM11.0002 17.1484C7.93644 17.1484 5.46387 14.6758 5.46387 11.6121C5.46387 8.54839 7.93644 6.07582 11.0002 6.07582C14.0639 6.07582 16.5365 8.54839 16.5365 11.6121C16.5365 14.6758 14.0639 17.1484 11.0002 17.1484ZM16.7632 7.14203C16.0479 7.14203 15.4703 6.56439 15.4703 5.84908C15.4703 5.13376 16.0479 4.5561 16.7632 4.5561C17.4785 4.5561 18.0562 5.13376 18.0562 5.84908C18.0564 6.01893 18.0231 6.18716 17.9582 6.3441C17.8933 6.50109 17.7981 6.6437 17.678 6.7638C17.5579 6.88395 17.4152 6.97917 17.2583 7.04404C17.1013 7.10897 16.9331 7.14225 16.7632 7.14203Z" fill="white"/>
</g>
<defs>
<clipPath id="clip0_2070_756">
<rect width="22" height="22" fill="white" transform="translate(0 0.612305)"/>
</clipPath>
</defs>
</svg>
