<svg width="22" height="19" viewBox="0 0 22 19" fill="none" xmlns="http://www.w3.org/2000/svg">
<g id="twitter" clip-path="url(#clip0_2070_760)">
<path id="Vector" d="M21.6654 3.14042C20.8841 3.48666 20.0447 3.7206 19.1622 3.82634C20.0728 3.28153 20.754 2.42407 21.0787 1.41394C20.2232 1.92205 19.2871 2.27971 18.3107 2.47135C17.6542 1.77034 16.7846 1.3057 15.8369 1.14956C14.8892 0.993429 13.9164 1.15454 13.0697 1.60788C12.223 2.06122 11.5496 2.78143 11.1541 3.65669C10.7587 4.53195 10.6632 5.51329 10.8826 6.44834C9.14927 6.3613 7.45362 5.9108 5.90569 5.12603C4.35774 4.34125 2.99211 3.23977 1.89741 1.89305C1.5231 2.53873 1.30788 3.28734 1.30788 4.08461C1.30746 4.80234 1.48421 5.50907 1.82244 6.14212C2.16066 6.77513 2.64992 7.31491 3.24678 7.71352C2.55458 7.69147 1.87764 7.50443 1.27232 7.16796V7.22411C1.27225 8.23075 1.62045 9.2064 2.25785 9.98552C2.89525 10.7647 3.78257 11.2993 4.76925 11.4987C4.12713 11.6725 3.4539 11.698 2.80042 11.5735C3.07881 12.4397 3.62108 13.1971 4.35133 13.7397C5.08156 14.2824 5.96321 14.5831 6.87287 14.5998C5.3287 15.812 3.42167 16.4695 1.45854 16.4666C1.11079 16.4667 0.763339 16.4464 0.417969 16.4058C2.41066 17.687 4.7303 18.367 7.09933 18.3644C15.1188 18.3644 19.5029 11.7223 19.5029 5.96177C19.5029 5.77459 19.4982 5.58557 19.4898 5.39843C20.3425 4.78173 21.0786 4.01807 21.6636 3.14323L21.6654 3.14042Z" fill="white"/>
</g>
<defs>
<clipPath id="clip0_2070_760">
<rect width="22" height="17.875" fill="white" transform="translate(0 0.812256)"/>
</clipPath>
</defs>
</svg>
