<svg width="22" height="14" viewBox="0 0 22 14" fill="none" xmlns="http://www.w3.org/2000/svg">
<g id="youtube" clip-path="url(#clip0_2070_758)">
<path id="Vector" d="M19.7563 2.59224C19.5803 1.62424 18.7443 0.920241 17.7763 0.700241C16.3243 0.392241 13.6403 0.172241 10.7363 0.172241C7.83231 0.172241 5.10431 0.392241 3.65231 0.700241C2.68431 0.920241 1.84831 1.58024 1.67231 2.59224C1.49631 3.69224 1.32031 5.23224 1.32031 7.21224C1.32031 9.19224 1.49631 10.7322 1.71631 11.8322C1.89231 12.8002 2.72831 13.5042 3.69631 13.7242C5.23631 14.0322 7.87631 14.2522 10.7803 14.2522C13.6843 14.2522 16.3243 14.0322 17.8643 13.7242C18.8323 13.5042 19.6683 12.8442 19.8443 11.8322C20.0203 10.7322 20.2403 9.14824 20.2843 7.21224C20.1963 5.23224 19.9763 3.69224 19.7563 2.59224ZM8.36031 10.2922V4.13224L13.7283 7.21224L8.36031 10.2922Z" fill="white"/>
</g>
<defs>
<clipPath id="clip0_2070_758">
<rect width="22" height="13.2" fill="white" transform="translate(0 0.612305)"/>
</clipPath>
</defs>
</svg>
